PathFileType	4	(X/Y/Z)	C:\Users\WrightLab\Desktop\Jo\P5V45.trc
DataRate	CameraRate	NumFrames	NumMarkers	Units	OrigDataRate	OrigDataStartFrame	OrigNumFrames
100.00	100.00	       43	19	mm	100.00	106	       840
Frame#	Time	Headset_Front			Headset_Back			Headset_Left			Headset_Right			Left_Shoulder			Right_Shoulder			Sternum			C7			Left Elbow			Right Elbow			Left Wrist			Right Wrist			Left ASIS			Right ASIS			S2			Left Knee			Right Knee			Left Ankle			Right Ankle			
		X1	Y1	Z1	X2	Y2	Z2	X3	Y3	Z3	X4	Y4	Z4	X5	Y5	Z5	X6	Y6	Z6	X7	Y7	Z7	X8	Y8	Z8	X9	Y9	Z9	X10	Y10	Z10	X11	Y11	Z11	X12	Y12	Z12	X13	Y13	Z13	X14	Y14	Z14	X15	Y15	Z15	X16	Y16	Z16	X17	Y17	Z17	X18	Y18	Z18	X19	Y19	Z19	

106	1.050	-257.23044	1528.49292	-1037.89246																									-359.22797	1167.94116	-1040.89697				-249.85716	1068.12756	-837.80737	18.91200	924.17352	-1136.40833	-252.68362	931.68164	-1087.76550				56.70439	478.63098	-1179.07922	-322.84955	471.55566	-1147.96118							
107	1.060	-257.92990	1528.07922	-1036.64941																									-359.22122	1167.92615	-1039.25098				-249.92508	1067.62659	-835.21185	18.85126	924.58356	-1137.07019	-252.69785	931.56555	-1087.75232				56.71240	478.62656	-1179.07471	-322.95303	471.44083	-1147.76672							
108	1.070	-258.67810	1528.03748	-1036.62439																									-357.94269	1168.04517	-1038.38586				-250.18881	1067.14331	-834.24866	18.70329	924.18695	-1136.56091	-252.45648	931.31366	-1087.72009				56.47516	478.22586	-1178.46729	-322.91528	471.37756	-1147.75134							
109	1.080	-259.35809	1527.74084	-1035.45789																									-357.96954	1167.74194	-1036.01416				-250.53513	1066.72803	-831.70862	18.59226	924.55939	-1137.25928	-252.87523	930.57104	-1087.38574				56.41392	477.87228	-1178.32642	-322.90094	471.31400	-1147.73975							
110	1.090	-260.09836	1527.30347	-1034.16187																									-357.85504	1167.71399	-1033.99683				-250.74683	1065.90015	-829.23413	18.41789	924.53143	-1137.38660	-252.89424	930.26758	-1087.07581				56.40676	477.86130	-1178.32263	-323.09296	471.11884	-1147.75134							
111	1.100	-260.82733	1527.13232	-1033.44067																									-358.66000	1167.47839	-1031.59253				-251.45821	1065.19080	-827.39325	18.31433	924.54584	-1137.46240	-253.19965	929.99500	-1086.94470				56.34538	478.06085	-1177.97900	-323.11334	471.07373	-1147.74829							
112	1.110	-261.52524	1526.99255	-1032.66919																									-358.78177	1167.66638	-1028.81091				-251.58920	1064.71460	-824.54620	18.07205	924.51465	-1137.63928	-253.27747	929.93372	-1086.93860				56.47794	478.17419	-1177.22974	-323.29242	470.86328	-1147.82275							
113	1.120	-262.27390	1526.51428	-1031.08887																									-358.65115	1167.65674	-1026.28149				-252.26216	1063.46924	-821.38196	17.38162	924.29193	-1137.96057	-253.56157	929.91284	-1086.57410				56.47946	478.17203	-1177.22827	-323.93817	470.77313	-1147.94202							
114	1.130	-263.05542	1526.40356	-1030.25732																									-358.94214	1168.09814	-1023.35980				-252.32762	1062.83691	-818.52606	17.17925	924.26453	-1138.10828	-253.72774	929.67328	-1086.98865				56.47946	478.17203	-1177.22827	-324.00516	470.77002	-1147.95288							
115	1.140	-263.79742	1526.31848	-1029.33752																									-358.50607	1167.60583	-1020.20935				-252.75165	1062.14209	-815.40088	16.92838	924.25580	-1138.29150	-254.07153	929.57965	-1086.83228				56.56595	478.34470	-1176.48499	-324.71698	470.69992	-1147.46936							
116	1.150	-264.67010	1526.02209	-1028.42004																									-358.43582	1167.87488	-1016.90472				-253.88922	1061.15137	-811.50311	16.07708	924.38153	-1138.72925	-252.83969	929.47589	-1087.67358				56.56942	478.33972	-1176.48145	-325.81387	471.36765	-1147.37183							
117	1.160	-265.47455	1525.43774	-1026.80688																									-358.39993	1168.37134	-1013.61682				-254.10690	1060.26697	-807.58087	15.44767	924.57568	-1139.04883	-252.96307	927.82770	-1087.99670				56.26717	478.71732	-1176.43896	-325.87985	471.37430	-1147.38379							
118	1.170	-266.09351	1525.10217	-1024.94458																									-358.04449	1168.19397	-1010.51575				-255.58206	1059.46851	-804.18225	15.36358	924.98840	-1139.72925	-253.14992	927.85687	-1087.69385				56.24076	478.96664	-1175.84827	-326.05423	471.24109	-1147.26440							
119	1.180	-267.02332	1524.90039	-1024.12378																									-357.77625	1169.33081	-1006.57910				-255.94022	1059.11084	-800.08020	15.26255	924.99011	-1139.80310	-253.14404	927.47186	-1087.61804				56.17659	479.18201	-1175.47290	-326.34579	470.84842	-1147.85571							
120	1.190	-267.76471	1524.40540	-1022.02533																									-357.17426	1170.05847	-1004.17041				-256.24796	1057.89050	-796.26837	15.18681	925.03516	-1139.85876	-253.86125	927.03949	-1087.89160				55.43096	479.20309	-1175.29346	-326.73743	470.78787	-1147.75854							
121	1.200	-268.59427	1523.66248	-1020.60376																									-355.83597	1170.67053	-1000.34174				-256.75378	1056.73669	-792.59119	15.13307	924.84863	-1141.05945	-254.36926	926.98145	-1087.80371				55.42462	479.30756	-1174.84326	-327.29755	470.80679	-1148.09863							
122	1.210	-269.45923	1523.05652	-1018.80023																									-354.73282	1171.34106	-996.24152				-257.62134	1055.26099	-788.27454	15.06859	924.90039	-1141.10693	-254.55746	926.75769	-1088.04126				53.96815	478.48703	-1174.02002	-328.39551	471.02155	-1148.34363							
123	1.220	-270.28052	1522.43823	-1017.10498																									-354.59702	1171.70850	-992.99670				-257.86774	1054.66345	-784.25574	15.02485	924.49908	-1141.88818	-254.83995	926.24524	-1088.41577				53.88319	478.77112	-1174.10095	-329.78839	470.71310	-1149.65173							
124	1.230	-271.05780	1521.88367	-1015.18683																									-353.51459	1172.68250	-989.85242				-257.99841	1053.58008	-780.82922	15.03970	925.07471	-1144.02747	-255.03778	925.43652	-1088.68860				53.84883	478.78021	-1174.11511	-330.18030	470.91034	-1149.83838							
125	1.240	-271.90881	1521.65271	-1013.90057																									-353.29361	1172.94458	-986.26752				-257.78015	1052.06677	-777.23181	15.02984	925.13739	-1144.03491	-254.98064	925.37451	-1088.66797				53.10723	478.70660	-1174.28430	-331.03186	470.94025	-1150.14087							
126	1.250	-272.76349	1521.05896	-1012.56384																									-352.49722	1173.88428	-981.79547				-257.25610	1051.46277	-774.71326	15.36106	926.08014	-1144.57849	-257.83786	926.15491	-1087.88733				53.07561	478.54791	-1175.01135	-332.27887	470.94855	-1151.97827							
127	1.260	-273.65359	1520.35303	-1010.66071																									-352.03333	1174.05859	-978.50153				-257.43875	1050.23389	-770.96466	16.29244	926.45978	-1144.22485	-255.03664	924.73480	-1088.03955				54.28484	479.68491	-1176.02454	-333.08798	470.91870	-1152.27905							
128	1.270	-274.46533	1519.64050	-1008.50024																									-350.46188	1174.00964	-975.47260				-258.21875	1048.45471	-767.43878	16.28545	926.07898	-1145.69336	-254.66541	923.70764	-1087.93311				53.81312	480.01492	-1176.41870	-333.88614	470.64948	-1154.17139							
129	1.280	-275.42014	1518.70422	-1007.14532																									-350.18433	1174.55945	-972.62103				-258.71411	1047.08057	-764.91809	16.30271	925.87299	-1149.29077	-254.19249	921.81970	-1087.69958				53.67277	479.76599	-1177.61902	-334.18079	470.80484	-1154.08374							
130	1.290	-276.23273	1518.17920	-1005.17896																									-349.35651	1173.82483	-969.77124				-260.14374	1045.51270	-761.95929	16.20456	925.90338	-1149.36304	-253.31271	921.27625	-1087.01355				54.34207	480.36087	-1177.98840	-334.08798	470.60452	-1155.00977							
131	1.300	-277.09933	1517.24890	-1003.08875																									-350.18039	1174.91272	-965.31012				-261.26349	1043.90015	-759.39124	16.12789	925.93781	-1149.41943	-253.94208	919.98840	-1088.28125				53.87997	480.04126	-1180.44507	-335.07443	470.30807	-1156.58582							
132	1.310	-277.81149	1516.53528	-1000.68616																									-348.31625	1174.52100	-962.91541				-262.39749	1041.92871	-756.39850	15.93143	926.21149	-1149.53284	-254.83228	920.44110	-1088.54834				53.85938	480.07050	-1180.46594	-335.35706	470.28470	-1156.97119							
133	1.320	-278.71985	1515.72546	-999.03760																									-347.76083	1174.41846	-959.69220				-263.25278	1040.20398	-752.57294	16.12327	926.10364	-1150.94165	-254.16101	920.32709	-1088.23010				54.83921	479.56876	-1182.36304	-336.14398	469.61984	-1158.00085							
134	1.330	-279.56982	1514.88513	-996.83600																									-347.22308	1174.39001	-957.31512				-264.99493	1037.85388	-750.10315	16.69641	926.84882	-1153.98499	-253.88321	919.45117	-1086.57471				54.71743	479.31149	-1183.39771	-336.74603	470.10849	-1158.38879							
135	1.340	-280.39133	1514.12756	-994.69720																									-346.93536	1173.90344	-953.97876				-266.27081	1036.02405	-747.56598	16.63181	926.86121	-1154.03271	-253.56862	919.17737	-1084.81665				54.99599	479.32410	-1185.28027	-336.31070	469.66183	-1158.53137							
136	1.350	-281.11240	1513.31958	-992.51202																									-346.90115	1174.12305	-951.61749				-266.28030	1034.54651	-743.95776	16.57564	926.86609	-1154.07410	-252.85492	918.29517	-1084.62329				55.34824	479.42978	-1186.75684	-336.72321	470.22034	-1158.96497							
137	1.360	-281.86627	1512.14526	-990.13782																									-347.03546	1173.46667	-948.76263				-267.45419	1033.07227	-741.89166	16.65039	926.51233	-1154.42566	-249.99948	918.82349	-1084.13062				55.63259	479.96451	-1188.34668	-337.01816	470.52597	-1159.77454							
138	1.370	-282.75961	1510.90991	-987.91644																									-347.70984	1173.68506	-945.44421				-268.71796	1031.43713	-739.08466	16.85308	927.20508	-1157.93872	-250.38528	918.52161	-1084.18762				55.25011	479.81317	-1190.30847	-335.97357	469.30371	-1159.86658							
139	1.380	-283.40863	1509.83386	-985.39899																									-346.29547	1173.00134	-943.64703				-269.72128	1029.77075	-737.64124	16.75914	927.03339	-1159.18018	-251.38042	916.42017	-1082.90466				55.11170	479.44492	-1192.05994	-335.59723	469.10104	-1160.66956							
140	1.390	-284.18304	1508.86584	-983.76086																									-345.44122	1172.93164	-940.83704				-270.00314	1028.84399	-733.29376	15.96884	927.85675	-1160.18506	-250.87695	916.32074	-1083.54492				55.00626	480.40417	-1194.01843	-335.54962	469.60513	-1161.77393							
141	1.400	-284.90588	1507.66187	-981.35480																									-345.74985	1172.57397	-937.38525				-270.52902	1026.71375	-732.39917	15.83905	927.93311	-1160.28113	-251.53618	915.11871	-1081.90454				54.78924	480.41824	-1195.03870	-334.58655	469.01279	-1161.60803							
142	1.410	-285.55719	1506.54102	-979.19177																									-345.24954	1172.15332	-935.40808				-271.73022	1025.73413	-729.72174	16.75233	927.74585	-1163.75342	-251.44516	914.29016	-1080.16113				55.25844	480.35983	-1196.68140	-334.49591	469.16895	-1162.04993							
143	1.420	-286.34363	1505.37927	-977.28430																									-345.62274	1172.04736	-932.56567				-271.12274	1024.72168	-727.65979	17.64951	928.62408	-1164.30652	-250.95935	913.61920	-1079.87573				55.10979	480.10699	-1198.16077	-333.35120	469.12735	-1162.04883							
144	1.430	-287.16302	1504.26538	-975.28375																									-345.80066	1171.59766	-930.51849				-272.12021	1023.23712	-724.71326	17.57609	928.21918	-1164.75586	-251.00490	913.20898	-1079.86414				55.35857	480.04269	-1200.39722	-332.79626	469.29892	-1162.85010							
145	1.440	-287.86557	1502.89856	-972.65155																									-345.64389	1171.17566	-927.95044				-273.35138	1022.00720	-722.74097	17.61506	929.08588	-1165.38770	-251.60333	912.14856	-1077.43762				55.03257	480.49741	-1200.64417	-331.95709	468.83670	-1162.71301							
146	1.450	-288.50345	1501.95471	-970.53009																									-346.24924	1171.17859	-926.03882				-273.54193	1021.21820	-720.58478	17.54310	928.93536	-1166.61682	-251.76903	912.07056	-1076.86255				54.61573	480.13901	-1202.93030	-330.71307	468.12048	-1162.72620							
147	1.460	-289.28534	1500.87415	-968.54822																									-346.00885	1170.15161	-923.73804				-273.65726	1019.92542	-718.65973	17.49880	928.73346	-1169.57605	-251.84547	911.95349	-1076.59998				54.48163	480.60568	-1204.43494	-330.44022	468.54962	-1163.48315							
148	1.470	-290.07712	1499.84717	-966.97614																									-346.91855	1169.51318	-921.10919				-274.07733	1018.39801	-716.04260	17.53639	929.39789	-1170.23743	-252.23978	910.79163	-1076.69556				54.80817	480.46304	-1206.08850	-330.54529	468.96622	-1164.21680							
